<svg version="1.1" id="Layer_1" xmlns="http://www.w3.org/2000/svg" xmlns:xlink="http://www.w3.org/1999/xlink" x="0px" y="0px"
	 width="100%" viewBox="0 0 1024 1024" enable-background="new 0 0 1024 1024" xml:space="preserve">
<path fill="#000000" opacity="1.000000" stroke="none" 
	d="
M478.468658,1025.000000 
	C468.584259,1022.697510 458.874084,1022.825623 449.321320,1021.619812 
	C424.506500,1018.487671 400.109467,1013.454590 376.013763,1006.876404 
	C353.821136,1000.817749 332.167847,993.195618 310.967010,984.248047 
	C306.557495,982.387085 304.317627,979.850403 303.496216,974.877014 
	C299.432281,950.271362 294.917236,925.740112 290.562103,901.182556 
	C290.413086,900.342468 290.125183,899.601440 288.769012,899.052368 
	C286.369049,904.775208 286.465363,910.961121 285.400818,916.871460 
	C282.631104,932.248413 279.941437,947.642639 277.498016,963.073975 
	C276.806152,967.443420 275.108643,967.442566 271.863068,965.668823 
	C236.942032,946.584717 204.156677,924.422119 174.296661,898.046570 
	C167.931137,892.423950 161.711823,886.635132 155.457413,880.887756 
	C152.650452,878.308350 151.874054,875.671387 153.345352,871.617004 
	C168.167786,830.771423 182.676712,789.812256 197.356827,748.914856 
	C205.930954,725.028076 223.050888,709.757996 246.916000,702.608032 
	C278.637146,693.104370 310.658478,684.602234 342.553467,675.679138 
	C353.614380,672.584778 364.681854,669.513855 375.749786,666.444458 
	C377.317993,666.009583 378.853027,665.155701 381.292603,666.200073 
	C375.138947,686.713257 366.536621,706.437256 359.399689,727.382385 
	C377.289856,731.483276 395.096375,732.153503 412.285339,735.240906 
	C413.428406,737.972473 411.705292,739.465759 410.768768,741.102661 
	C406.219849,749.053589 401.619751,756.976013 396.946899,764.854614 
	C395.671539,767.004883 395.638245,768.438782 397.609070,770.440735 
	C434.665009,808.081299 471.628937,845.812439 508.570923,883.565063 
	C509.843140,884.865173 510.689362,886.582214 512.118286,887.745728 
	C514.789307,886.988281 515.771240,885.267273 517.011902,884.007324 
	C553.840027,846.606201 590.614441,809.152161 627.511475,771.819275 
	C630.189636,769.109497 630.818970,767.006409 628.757751,763.692322 
	C624.448975,756.764587 620.441772,749.648865 616.330505,742.598816 
	C615.168884,740.606628 614.076294,738.574280 612.807922,736.302307 
	C616.247314,733.881042 620.008728,734.248291 623.490417,733.755127 
	C635.672546,732.029663 647.891846,730.563477 660.066284,728.787903 
	C666.130615,727.903381 666.728821,726.704102 664.542297,720.753235 
	C658.226196,703.563110 651.828186,686.403015 645.444885,669.237671 
	C645.046936,668.167542 644.248596,667.201111 645.060364,665.448425 
	C651.344360,666.017944 657.414062,668.263062 663.565247,669.950073 
	C698.235291,679.458191 732.869080,689.098206 767.512329,698.703918 
	C776.192444,701.110657 784.685974,703.990906 792.765808,708.063843 
	C809.961975,716.732300 821.710876,730.230957 828.437439,748.140869 
	C844.008240,789.598999 858.384949,831.486267 873.302734,873.179138 
	C874.424316,876.313843 873.424133,878.230896 871.362244,880.207581 
	C860.417419,890.700439 849.017639,900.678406 837.267883,910.254333 
	C811.619019,931.157898 784.085510,949.240234 755.016846,965.009583 
	C753.574341,965.792175 752.203979,966.840698 749.392761,966.697083 
	C745.593933,944.649963 741.755737,922.374207 737.814331,899.499695 
	C734.413208,901.825684 734.970642,905.018372 734.518982,907.491272 
	C730.246155,930.887451 726.183960,954.322327 722.135925,977.758972 
	C721.617676,980.759521 719.908936,982.315063 717.239258,983.451660 
	C682.651367,998.177551 646.925476,1009.095764 610.028564,1016.373840 
	C588.427002,1020.634827 566.606445,1022.766724 544.365051,1024.825195 
	C522.312439,1025.000000 500.624878,1025.000000 478.468658,1025.000000 
M699.803772,863.299927 
	C712.951843,848.471252 713.371460,827.772827 705.447083,813.497681 
	C697.053833,798.377930 678.638367,787.559265 659.627136,791.302734 
	C636.473511,795.861755 622.540344,815.751648 623.656128,836.359680 
	C624.661377,854.926758 634.414490,868.979858 652.361084,875.363770 
	C670.143677,881.689453 686.094971,877.505676 699.803772,863.299927 
z"/>
<path fill="#000000" opacity="1.000000" stroke="none" 
	d="
M236.116104,546.674194 
	C232.819626,536.436951 230.882370,526.313232 229.917831,516.026978 
	C229.582825,512.454285 228.188919,511.097046 224.599518,511.174896 
	C221.296219,511.246552 217.930588,510.931702 214.676254,510.332062 
	C202.365662,508.063751 193.452225,501.273926 189.749512,489.185669 
	C182.422165,465.263977 178.967941,440.884125 182.387619,415.801880 
	C183.535278,407.384094 184.824203,399.006836 186.824310,390.766693 
	C191.649765,370.886292 202.432236,361.639923 222.872223,360.259888 
	C227.683914,359.935028 229.364471,358.394806 229.886597,353.565887 
	C233.495758,320.185547 246.991806,291.836975 273.643646,270.623993 
	C293.580811,254.755432 316.536713,245.994537 341.932434,245.921341 
	C455.588226,245.593781 569.246338,245.531357 682.901978,245.896866 
	C738.015259,246.074097 784.846558,286.613373 794.273315,340.999969 
	C795.095459,345.743683 795.923218,350.518799 796.214539,355.311798 
	C796.447388,359.142761 797.719971,360.364594 801.707336,360.308807 
	C820.833862,360.040955 833.169678,369.371857 838.328613,387.803436 
	C839.894531,393.397705 841.087341,399.109436 842.192200,404.817474 
	C847.288635,431.148468 844.915405,457.120605 838.533691,482.951324 
	C833.918396,501.632385 822.597412,511.049011 803.284363,511.163177 
	C798.477661,511.191559 796.478821,512.135681 795.931213,517.618347 
	C793.838867,538.568054 787.973389,558.462891 776.320312,576.251526 
	C758.070374,604.110291 732.630249,621.516296 699.839294,627.814209 
	C694.306091,628.876953 688.641296,629.346191 682.950378,629.344910 
	C569.626831,629.319092 456.299835,629.842407 342.981384,629.083069 
	C299.246399,628.790039 267.554626,606.189026 245.726166,569.033630 
	C241.660172,562.112671 238.746094,554.664001 236.116104,546.674194 
M707.084473,302.382294 
	C698.876648,299.001862 690.432983,296.374176 681.493652,296.370392 
	C569.364563,296.323059 457.235138,296.227081 345.106628,296.494598 
	C328.033966,296.535309 312.897644,303.013672 300.645142,315.239624 
	C287.438049,328.418091 281.525360,344.845825 281.398285,363.111481 
	C281.085327,408.094238 281.295990,453.080658 281.302917,498.065582 
	C281.303741,503.387909 281.490448,508.675079 282.073364,513.999329 
	C285.860352,548.588562 313.459991,573.667114 348.254730,573.679260 
	C458.217926,573.717773 568.181152,573.686157 678.144348,573.727051 
	C683.178650,573.728882 688.115967,573.088501 692.977966,572.016663 
	C723.431824,565.302673 744.585876,538.301331 744.665283,505.767303 
	C744.781921,457.950256 745.125183,410.127472 744.537659,362.317413 
	C744.209167,335.582153 732.054565,315.145966 707.084473,302.382294 
z"/>
<path fill="#000000" opacity="1.000000" stroke="none" 
	d="
M576.469116,685.579224 
	C561.102112,694.108582 545.218750,700.550049 529.137268,706.567505 
	C522.168945,709.174988 521.540710,711.600525 526.844788,716.855713 
	C538.205750,728.112061 549.850281,739.081726 561.306824,750.242554 
	C563.826416,752.697144 565.712463,752.811096 568.402649,750.226196 
	C575.727783,743.187622 583.328796,736.434998 590.865295,729.618713 
	C591.995483,728.596497 592.816589,726.824036 595.425598,727.477051 
	C593.559875,731.106262 591.863953,734.617981 589.982117,738.027161 
	C583.703064,749.402283 577.387695,760.757690 571.023560,772.085449 
	C568.230774,777.056274 567.367188,777.238159 563.361633,773.322876 
	C557.524780,767.617615 551.767944,761.823792 546.156860,755.897400 
	C543.299866,752.879883 540.981262,752.689697 538.616272,756.250916 
	C538.249634,756.802979 537.760620,757.272217 537.348206,757.795593 
	C525.684265,772.595642 525.704163,772.588684 532.306030,790.279358 
	C535.333191,798.391174 538.265991,806.538208 541.243225,814.668640 
	C542.959412,819.355469 542.396790,823.683716 539.853455,828.045593 
	C532.218689,841.139832 524.791260,854.354919 517.266602,867.513489 
	C516.290955,869.219604 515.592712,871.474731 513.267761,871.587463 
	C510.787720,871.707825 510.269257,869.302368 509.300934,867.625671 
	C502.051941,855.074036 494.971832,842.421326 487.512543,829.996216 
	C484.176910,824.439880 483.259918,819.188904 485.743988,813.006897 
	C489.838654,802.816345 492.989960,792.233459 497.352295,782.168518 
	C500.202942,775.591309 500.233185,770.457092 494.834076,765.276428 
	C490.916626,761.517395 488.485260,756.342834 484.053802,752.857300 
	C478.934784,757.760803 473.899780,762.516785 468.947662,767.357605 
	C466.686218,769.568237 464.594757,771.952332 462.414703,774.246826 
	C460.249207,776.526001 458.181885,776.879822 456.464600,773.783875 
	C447.985229,758.497620 439.524750,743.200989 431.087372,727.891541 
	C430.988800,727.712585 431.284180,727.316589 431.639252,726.378174 
	C438.138123,732.308044 444.464935,738.049622 450.757233,743.828735 
	C463.638214,755.659424 459.376404,754.945129 471.248749,744.009705 
	C480.314819,735.659241 489.176910,727.076538 497.894745,718.362061 
	C505.449402,710.810242 505.161865,709.469116 495.320190,705.867920 
	C467.636810,695.738159 441.395599,682.934814 417.810974,665.030334 
	C414.182739,662.276001 411.862488,659.231995 413.218597,654.437927 
	C414.222565,650.888733 416.507874,648.647522 420.126434,648.029114 
	C422.079529,647.695374 424.107269,647.716797 426.101349,647.716248 
	C483.767120,647.701904 541.432922,647.703308 599.098694,647.712158 
	C601.096558,647.712463 603.124268,647.614868 605.085876,647.909973 
	C609.016846,648.501282 611.928772,650.554626 612.954041,654.587097 
	C613.959595,658.541809 612.750610,661.785095 609.489075,664.286743 
	C599.160156,672.209534 588.324036,679.342957 576.469116,685.579224 
z"/>
<path fill="#000000" opacity="1.000000" stroke="none" 
	d="
M687.345703,855.883057 
	C688.323730,857.880371 689.113281,859.537415 688.541565,861.403320 
	C687.453735,862.581787 686.059387,862.407288 684.758850,862.406250 
	C675.425781,862.398865 666.090576,862.461853 656.760254,862.284241 
	C649.784363,862.151489 645.956299,858.649719 644.995239,851.759888 
	C643.416321,840.440613 651.995728,828.816345 664.194824,828.632263 
	C669.520447,828.551880 674.840820,828.151917 680.164856,827.926270 
	C684.262390,827.752625 684.779297,829.782837 683.050659,832.916138 
	C681.220154,836.234253 678.719238,838.685425 674.773865,839.560364 
	C671.624878,840.258545 668.475708,840.288452 665.329651,840.193726 
	C661.271118,840.071533 660.281860,842.077454 660.301392,845.764221 
	C660.320679,849.419556 661.637268,850.930725 665.312744,850.762817 
	C669.304565,850.580444 673.311157,850.743347 677.310730,850.703125 
	C681.421448,850.661804 684.810608,852.026184 687.345703,855.883057 
z"/>
<path fill="#000000" opacity="1.000000" stroke="none" 
	d="
M671.012512,806.041382 
	C675.668945,806.046509 679.830811,805.973450 683.988342,806.076294 
	C688.689697,806.192444 689.555237,807.757751 687.428894,811.989075 
	C685.358582,816.109009 681.968323,818.139832 677.408081,818.204041 
	C673.581787,818.257935 669.748108,818.342590 665.928894,818.168030 
	C662.718933,818.021423 660.645264,819.058044 660.704224,822.499634 
	C660.769958,826.331360 659.031860,828.115479 655.279114,828.787842 
	C651.764587,829.417480 649.492798,832.383301 646.077148,835.759583 
	C644.970886,827.568420 643.940308,820.638245 646.585876,813.774170 
	C648.216309,809.543823 651.592468,807.352783 656.072632,806.650452 
	C660.874817,805.897644 665.695129,806.076477 671.012512,806.041382 
z"/>
<path fill="#000000" opacity="1.000000" stroke="none" 
	d="
M622.324463,363.737976 
	C640.260010,362.409576 655.921143,366.970093 668.802490,379.022766 
	C686.618103,395.692230 692.328613,416.412415 685.756165,439.628693 
	C679.430969,461.971649 663.927673,475.853088 641.304871,481.146515 
	C607.645142,489.022461 573.146240,463.912201 569.570007,429.662201 
	C566.379395,399.106079 585.877319,368.994476 622.324463,363.737976 
z"/>
<path fill="#000000" opacity="1.000000" stroke="none" 
	d="
M339.456238,437.159851 
	C332.607117,401.510986 352.135986,371.191711 386.785156,364.567169 
	C420.295654,358.160370 454.116669,382.040680 456.448181,418.119354 
	C457.638885,436.545258 452.584686,452.551605 439.316803,465.201477 
	C404.472748,498.422638 353.036346,480.381439 340.608124,440.900940 
	C340.258606,439.790680 339.917847,438.677704 339.456238,437.159851 
z"/>
<path fill="#000000" opacity="1.000000" stroke="none" 
	d="
M567.264221,505.271027 
	C569.858154,513.994507 568.003540,519.076477 560.546631,523.262024 
	C528.493896,541.253052 496.519318,541.394287 464.786072,522.455383 
	C457.725250,518.241394 455.587830,510.746460 459.254242,504.517029 
	C462.922424,498.284546 470.328583,496.846893 477.597260,501.406067 
	C497.301117,513.765015 517.875061,515.024414 539.213257,506.482117 
	C542.732666,505.073212 545.870544,502.729797 549.234619,500.910583 
	C556.371887,497.050934 562.243042,498.384735 567.264221,505.271027 
z"/>
</svg>
